<?xml version="1.0" encoding="UTF-8"?>
<svg width="22px" height="22px" viewBox="0 0 24 24" version="1.1" 
    xmlns="http://www.w3.org/2000/svg" 
    xmlns:xlink="http://www.w3.org/1999/xlink">
    <!-- Generator: sketchtool 56.2 (101010) - https://sketch.com -->
    <title>43941815-C3D1-4977-99CC-8A88C3E172E1</title>
    <desc>Created with sketchtool.</desc>
    <g id="Symbols" stroke="none" stroke-width="1" fill="none" fill-rule="evenodd">
        <g id="Icons/Eye/Eyes" fill="#8191a0">
            <path d="M12,9.1001 C13.811,9.1001 15.272,10.6191 15.272,12.5001 C15.272,14.3811 13.811,15.9001 12,15.9001 C10.189,15.9001 8.728,14.3811 8.728,12.5001 C8.728,10.6191 10.189,9.1001 12,9.1001 Z M12,18.1665 C15.011,18.1665 17.454,15.6275 17.454,12.4995 C17.454,9.3725 15.011,6.8335 12,6.8335 C8.989,6.8335 6.546,9.3725 6.546,12.4995 C6.546,15.6275 8.989,18.1665 12,18.1665 Z M12,3.9995 C17.454,3.9995 22.112,7.5245 24,12.4995 C22.112,17.4755 17.454,20.9995 12,20.9995 C6.546,20.9995 1.888,17.4755 0,12.4995 C1.888,7.5245 6.546,3.9995 12,3.9995 Z" id="Icons/Eyes"></path>
        </g>
    </g>
</svg>