<?xml version="1.0" standalone="no"?>
<!DOCTYPE svg PUBLIC "-//W3C//DTD SVG 20010904//EN"
 "http://www.w3.org/TR/2001/REC-SVG-20010904/DTD/svg10.dtd">
<svg version="1.0" xmlns="http://www.w3.org/2000/svg"
 width="458.000000pt" height="458.000000pt" viewBox="0 0 458.000000 458.000000"
 preserveAspectRatio="xMidYMid meet">
<metadata>
Created by potrace 1.14, written by Peter Selinger 2001-2017
</metadata>
<g transform="translate(0.000000,458.000000) scale(0.100000,-0.100000)"
fill="#000000" stroke="none">
<path d="M2049 4193 c-123 -147 -231 -277 -240 -288 -67 -81 -186 -222 -194
-231 -5 -6 -23 -28 -40 -48 -16 -21 -38 -48 -48 -60 -11 -11 -35 -41 -55 -65
-21 -24 -41 -49 -47 -55 -5 -6 -28 -34 -50 -61 -21 -28 -42 -52 -45 -55 -4 -3
-86 -102 -184 -220 -172 -207 -249 -298 -291 -347 -11 -12 -33 -39 -50 -60
-16 -21 -77 -94 -135 -163 l-105 -125 0 -1178 0 -1177 1705 0 1705 0 0 1178 0
1177 -26 30 c-15 17 -127 152 -249 300 -123 149 -237 286 -254 306 -17 19 -40
46 -51 60 -73 88 -162 197 -177 214 -9 11 -26 30 -36 43 -11 13 -35 41 -54 64
-34 42 -220 267 -288 348 -80 96 -157 189 -190 230 -19 24 -44 54 -55 66 -11
12 -27 31 -35 41 -45 55 -265 320 -275 331 -10 11 -54 -35 -236 -255z"/>
</g>
</svg>
