<svg width="40" height="40" fill="none" viewBox="0 0 40 40" xmlns="http://www.w3.org/2000/svg">
    <path fill-rule="evenodd" clip-rule="evenodd"
        d="M1.81818 10.9091H9.09091C10.0606 10.9091 10.9091 10.0606 10.9091 9.09089C10.9091 8.12119 10.0606 7.27271 9.09091 7.27271H1.81818C0.848485 7.27271 0 8.12119 0 9.09089C0 10.0606 0.848485 10.9091 1.81818 10.9091ZM1.81818 25.4545H9.09091C10.0606 25.4545 10.9091 24.606 10.9091 23.6363C10.9091 22.6666 10.0606 21.8182 9.09091 21.8182H1.81818C0.848485 21.8182 0 22.6666 0 23.6363C0 24.606 0.848485 25.4545 1.81818 25.4545ZM9.09091 32.7273H1.81818C0.848485 32.7273 0 31.8788 0 30.9091C0 29.9394 0.848485 29.0909 1.81818 29.0909H9.09091C10.0606 29.0909 10.9091 29.9394 10.9091 30.9091C10.9091 31.8788 10.0606 32.7273 9.09091 32.7273ZM16.3636 18.1818H23.6364C24.6061 18.1818 25.4545 17.3333 25.4545 16.3636C25.4545 15.3939 24.6061 14.5454 23.6364 14.5454H16.3636C15.3939 14.5454 14.5455 15.3939 14.5455 16.3636C14.5455 17.3333 15.3939 18.1818 16.3636 18.1818ZM23.6364 25.4545H16.3636C15.3939 25.4545 14.5455 24.606 14.5455 23.6363C14.5455 22.6666 15.3939 21.8182 16.3636 21.8182H23.6364C24.6061 21.8182 25.4545 22.6666 25.4545 23.6363C25.4545 24.606 24.6061 25.4545 23.6364 25.4545ZM30.9091 10.9091H38.1818C39.1515 10.9091 40 10.0606 40 9.09089C40 8.12119 39.1515 7.27271 38.1818 7.27271H30.9091C29.9394 7.27271 29.0909 8.12119 29.0909 9.09089C29.0909 10.0606 29.9394 10.9091 30.9091 10.9091ZM38.1818 18.1818H30.9091C29.9394 18.1818 29.0909 17.3333 29.0909 16.3636C29.0909 15.3939 29.9394 14.5454 30.9091 14.5454H38.1818C39.1515 14.5454 40 15.3939 40 16.3636C40 17.3333 39.1515 18.1818 38.1818 18.1818ZM30.9091 32.7273H38.1818C39.1515 32.7273 40 31.8788 40 30.9091C40 29.9394 39.1515 29.0909 38.1818 29.0909H30.9091C29.9394 29.0909 29.0909 29.9394 29.0909 30.9091C29.0909 31.8788 29.9394 32.7273 30.9091 32.7273Z"
        fill="#000000" />
</svg>